<svg preserveAspectRatio="none" width="100%" height="100%" overflow="visible" style="display: block;" viewBox="0 0 10.5 10.5" fill="none" xmlns="http://www.w3.org/2000/svg">
<path id="Vector" d="M3.5 4.66667H2.33333V5.83333H3.5V4.66667ZM5.83333 7H4.66667V8.16667H5.83333V7ZM3.5 0H2.33333V1.16667H3.5V0ZM5.83333 4.66667H4.66667V5.83333H5.83333V4.66667ZM1.16667 0H0V1.16667H1.16667V0ZM5.83333 2.33333H4.66667V3.5H5.83333V2.33333ZM8.16667 4.66667H7V5.83333H8.16667V4.66667ZM5.83333 0H4.66667V1.16667H5.83333V0ZM8.16667 0H7V1.16667H8.16667V0ZM9.33333 5.83333H10.5V4.66667H9.33333V5.83333ZM9.33333 8.16667H10.5V7H9.33333V8.16667ZM1.16667 2.33333H0V3.5H1.16667V2.33333ZM9.33333 0V1.16667H10.5V0H9.33333ZM9.33333 3.5H10.5V2.33333H9.33333V3.5ZM1.16667 4.66667H0V5.83333H1.16667V4.66667ZM0 10.5H10.5V9.33333H0V10.5ZM1.16667 7H0V8.16667H1.16667V7Z" fill="var(--fill-0, #475467)"/>
</svg>
