<svg preserveAspectRatio="none" width="100%" height="100%" overflow="visible" style="display: block;" viewBox="0 0 10.5 10.5" fill="none" xmlns="http://www.w3.org/2000/svg">
<path id="Vector" d="M2.33333 10.5H3.5V9.33333H2.33333V10.5ZM2.33333 5.83333H3.5V4.66667H2.33333V5.83333ZM4.66667 5.83333H5.83333V4.66667H4.66667V5.83333ZM4.66667 10.5H5.83333V9.33333H4.66667V10.5ZM0 8.16667H1.16667V7H0V8.16667ZM0 10.5H1.16667V9.33333H0V10.5ZM0 5.83333H1.16667V4.66667H0V5.83333ZM0 3.5H1.16667V2.33333H0V3.5ZM4.66667 8.16667H5.83333V7H4.66667V8.16667ZM9.33333 3.5H10.5V2.33333H9.33333V3.5ZM9.33333 5.83333H10.5V4.66667H9.33333V5.83333ZM0 0V1.16667H10.5V0H0ZM9.33333 8.16667H10.5V7H9.33333V8.16667ZM7 10.5H8.16667V9.33333H7V10.5ZM4.66667 3.5H5.83333V2.33333H4.66667V3.5ZM9.33333 10.5H10.5V9.33333H9.33333V10.5ZM7 5.83333H8.16667V4.66667H7V5.83333Z" fill="var(--fill-0, #475467)"/>
</svg>
