<svg preserveAspectRatio="none" width="100%" height="100%" overflow="visible" style="display: block;" viewBox="0 0 11.6725 11.6667" fill="none" xmlns="http://www.w3.org/2000/svg">
<path id="Icon (Stroke)" fill-rule="evenodd" clip-rule="evenodd" d="M0.583333 0C0.9055 0 1.16667 0.261167 1.16667 0.583333V11.0833C1.16667 11.4055 0.9055 11.6667 0.583333 11.6667C0.261167 11.6667 0 11.4055 0 11.0833V0.583333C0 0.261167 0.261167 0 0.583333 0ZM2.625 0.583333C2.625 0.261167 2.88617 0 3.20833 0H3.21417C3.53633 0 3.7975 0.261167 3.7975 0.583333C3.7975 0.9055 3.53633 1.16667 3.21417 1.16667H3.20833C2.88617 1.16667 2.625 0.9055 2.625 0.583333ZM5.25 0.583333C5.25 0.261167 5.51117 0 5.83333 0H5.83917C6.16133 0 6.4225 0.261167 6.4225 0.583333C6.4225 0.9055 6.16133 1.16667 5.83917 1.16667H5.83333C5.51117 1.16667 5.25 0.9055 5.25 0.583333ZM7.875 0.583333C7.875 0.261167 8.13617 0 8.45833 0H8.46417C8.78633 0 9.0475 0.261167 9.0475 0.583333C9.0475 0.9055 8.78633 1.16667 8.46417 1.16667H8.45833C8.13617 1.16667 7.875 0.9055 7.875 0.583333ZM10.5 0.583333C10.5 0.261167 10.7612 0 11.0833 0H11.0892C11.4113 0 11.6725 0.261167 11.6725 0.583333C11.6725 0.9055 11.4113 1.16667 11.0892 1.16667H11.0833C10.7612 1.16667 10.5 0.9055 10.5 0.583333ZM5.25 3.20833C5.25 2.88617 5.51117 2.625 5.83333 2.625H5.83917C6.16133 2.625 6.4225 2.88617 6.4225 3.20833C6.4225 3.5305 6.16133 3.79167 5.83917 3.79167H5.83333C5.51117 3.79167 5.25 3.5305 5.25 3.20833ZM10.5 3.20833C10.5 2.88617 10.7612 2.625 11.0833 2.625H11.0892C11.4113 2.625 11.6725 2.88617 11.6725 3.20833C11.6725 3.5305 11.4113 3.79167 11.0892 3.79167H11.0833C10.7612 3.79167 10.5 3.5305 10.5 3.20833ZM2.625 5.83333C2.625 5.51117 2.88617 5.25 3.20833 5.25H3.21417C3.53633 5.25 3.7975 5.51117 3.7975 5.83333C3.7975 6.1555 3.53633 6.41667 3.21417 6.41667H3.20833C2.88617 6.41667 2.625 6.1555 2.625 5.83333ZM5.25 5.83333C5.25 5.51117 5.51117 5.25 5.83333 5.25H5.83917C6.16133 5.25 6.4225 5.51117 6.4225 5.83333C6.4225 6.1555 6.16133 6.41667 5.83917 6.41667H5.83333C5.51117 6.41667 5.25 6.1555 5.25 5.83333ZM7.875 5.83333C7.875 5.51117 8.13617 5.25 8.45833 5.25H8.46417C8.78633 5.25 9.0475 5.51117 9.0475 5.83333C9.0475 6.1555 8.78633 6.41667 8.46417 6.41667H8.45833C8.13617 6.41667 7.875 6.1555 7.875 5.83333ZM10.5 5.83333C10.5 5.51117 10.7612 5.25 11.0833 5.25H11.0892C11.4113 5.25 11.6725 5.51117 11.6725 5.83333C11.6725 6.1555 11.4113 6.41667 11.0892 6.41667H11.0833C10.7612 6.41667 10.5 6.1555 10.5 5.83333ZM5.25 8.45833C5.25 8.13617 5.51117 7.875 5.83333 7.875H5.83917C6.16133 7.875 6.4225 8.13617 6.4225 8.45833C6.4225 8.7805 6.16133 9.04167 5.83917 9.04167H5.83333C5.51117 9.04167 5.25 8.7805 5.25 8.45833ZM10.5 8.45833C10.5 8.13617 10.7612 7.875 11.0833 7.875H11.0892C11.4113 7.875 11.6725 8.13617 11.6725 8.45833C11.6725 8.7805 11.4113 9.04167 11.0892 9.04167H11.0833C10.7612 9.04167 10.5 8.7805 10.5 8.45833ZM2.625 11.0833C2.625 10.7612 2.88617 10.5 3.20833 10.5H3.21417C3.53633 10.5 3.7975 10.7612 3.7975 11.0833C3.7975 11.4055 3.53633 11.6667 3.21417 11.6667H3.20833C2.88617 11.6667 2.625 11.4055 2.625 11.0833ZM5.25 11.0833C5.25 10.7612 5.51117 10.5 5.83333 10.5H5.83917C6.16133 10.5 6.4225 10.7612 6.4225 11.0833C6.4225 11.4055 6.16133 11.6667 5.83917 11.6667H5.83333C5.51117 11.6667 5.25 11.4055 5.25 11.0833ZM7.875 11.0833C7.875 10.7612 8.13617 10.5 8.45833 10.5H8.46417C8.78633 10.5 9.0475 10.7612 9.0475 11.0833C9.0475 11.4055 8.78633 11.6667 8.46417 11.6667H8.45833C8.13617 11.6667 7.875 11.4055 7.875 11.0833ZM10.5 11.0833C10.5 10.7612 10.7612 10.5 11.0833 10.5H11.0892C11.4113 10.5 11.6725 10.7612 11.6725 11.0833C11.6725 11.4055 11.4113 11.6667 11.0892 11.6667H11.0833C10.7612 11.6667 10.5 11.4055 10.5 11.0833Z" fill="var(--fill-0, #475467)"/>
</svg>
