<svg preserveAspectRatio="none" width="100%" height="100%" overflow="visible" style="display: block;" viewBox="0 0 10.5 10.5" fill="none" xmlns="http://www.w3.org/2000/svg">
<path id="Vector" d="M9.33333 9.33333H10.5V10.5H9.33333V9.33333ZM9.33333 8.16667H10.5V7H9.33333V8.16667ZM0 5.83333H1.16667V4.66667H0V5.83333ZM0 8.16667H1.16667V7H0V8.16667ZM0 3.5H1.16667V2.33333H0V3.5ZM0 1.16667H1.16667V0H0V1.16667ZM2.33333 1.16667H3.5V0H2.33333V1.16667ZM7 10.5H8.16667V9.33333H7V10.5ZM4.66667 10.5H5.83333V9.33333H4.66667V10.5ZM7 10.5H8.16667V9.33333H7V10.5ZM2.33333 10.5H3.5V9.33333H2.33333V10.5ZM0 10.5H1.16667V9.33333H0V10.5ZM10.5 2.91667C10.5 1.30667 9.19333 0 7.58333 0H4.66667V1.16667H7.58333C8.54583 1.16667 9.33333 1.95417 9.33333 2.91667V5.83333H10.5V2.91667Z" fill="var(--fill-0, #475467)"/>
</svg>
