<svg preserveAspectRatio="xMidYMid meet" width="100%" height="100%" style="display: block;" viewBox="0 0 16 16" fill="none" xmlns="http://www.w3.org/2000/svg">
<path transform="translate(1.3333 1.3333)" id="Icon (Stroke)" fill-rule="evenodd" clip-rule="evenodd" d="M3.83913 2.87527e-07L4 6.05419e-07C4.36819 6.05419e-07 4.66667 0.298477 4.66667 0.666667C4.66667 1.03486 4.36819 1.33333 4 1.33333H3.86667C3.29561 1.33333 2.90742 1.33385 2.60736 1.35837C2.31508 1.38225 2.16561 1.42553 2.06135 1.47866C1.81046 1.60649 1.60649 1.81046 1.47866 2.06135C1.42553 2.16561 1.38225 2.31508 1.35837 2.60736C1.33385 2.90742 1.33333 3.29561 1.33333 3.86667V4C1.33333 4.36819 1.03486 4.66667 0.666667 4.66667C0.298477 4.66667 6.05419e-07 4.36819 6.05419e-07 4L2.87527e-07 3.83913C-8.21607e-06 3.30249 -1.52091e-05 2.85958 0.029463 2.49878C0.0600798 2.12405 0.125789 1.77958 0.29065 1.45603C0.546312 0.95426 0.95426 0.546312 1.45603 0.29065C1.77958 0.125789 2.12405 0.0600798 2.49878 0.029463C2.85958 -1.52091e-05 3.30249 -8.21607e-06 3.83913 2.87527e-07ZM10.726 1.35837C10.4259 1.33385 10.0377 1.33333 9.46667 1.33333H9.33333C8.96514 1.33333 8.66667 1.03486 8.66667 0.666667C8.66667 0.298477 8.96514 6.05419e-07 9.33333 6.05419e-07L9.4942 2.87527e-07C10.0308 -8.21607e-06 10.4738 -1.52091e-05 10.8346 0.0294631C11.2093 0.0600799 11.5538 0.125789 11.8773 0.29065C12.3791 0.546312 12.787 0.95426 13.0427 1.45603C13.2075 1.77958 13.2733 2.12405 13.3039 2.49878C13.3333 2.85958 13.3333 3.30248 13.3333 3.83912V4C13.3333 4.36819 13.0349 4.66667 12.6667 4.66667C12.2985 4.66667 12 4.36819 12 4V3.86667C12 3.29561 11.9995 2.90742 11.975 2.60736C11.9511 2.31508 11.9078 2.16561 11.8547 2.06135C11.7268 1.81046 11.5229 1.60649 11.272 1.47866C11.1677 1.42553 11.0183 1.38225 10.726 1.35837ZM0.666667 8.66667C1.03486 8.66667 1.33333 8.96514 1.33333 9.33333V9.46667C1.33333 10.0377 1.33385 10.4259 1.35837 10.726C1.38225 11.0183 1.42553 11.1677 1.47866 11.272C1.60649 11.5229 1.81046 11.7268 2.06135 11.8547C2.16561 11.9078 2.31508 11.9511 2.60736 11.975C2.90742 11.9995 3.29561 12 3.86667 12H4C4.36819 12 4.66667 12.2985 4.66667 12.6667C4.66667 13.0349 4.36819 13.3333 4 13.3333H3.83912C3.30248 13.3333 2.85958 13.3333 2.49878 13.3039C2.12405 13.2733 1.77958 13.2075 1.45603 13.0427C0.95426 12.787 0.546312 12.3791 0.29065 11.8773C0.125789 11.5538 0.0600798 11.2093 0.029463 10.8346C-1.52091e-05 10.4738 -8.21607e-06 10.0308 2.87527e-07 9.4942L6.05419e-07 9.33333C6.05419e-07 8.96514 0.298477 8.66667 0.666667 8.66667ZM12.6667 8.66667C13.0349 8.66667 13.3333 8.96514 13.3333 9.33333V9.49422C13.3333 10.0309 13.3333 10.4738 13.3039 10.8346C13.2733 11.2093 13.2075 11.5538 13.0427 11.8773C12.787 12.3791 12.3791 12.787 11.8773 13.0427C11.5538 13.2075 11.2093 13.2733 10.8346 13.3039C10.4738 13.3333 10.0309 13.3333 9.49422 13.3333H9.33333C8.96514 13.3333 8.66667 13.0349 8.66667 12.6667C8.66667 12.2985 8.96514 12 9.33333 12H9.46667C10.0377 12 10.4259 11.9995 10.726 11.975C11.0183 11.9511 11.1677 11.9078 11.272 11.8547C11.5229 11.7268 11.7268 11.5229 11.8547 11.272C11.9078 11.1677 11.9511 11.0183 11.975 10.726C11.9995 10.4259 12 10.0377 12 9.46667V9.33333C12 8.96514 12.2985 8.66667 12.6667 8.66667Z" fill="#5925DC"/>
</svg>
