<svg preserveAspectRatio="none" width="100%" height="100%" overflow="visible" style="display: block;" viewBox="0 0 1504 4" fill="none" xmlns="http://www.w3.org/2000/svg">
<g id="Dot Row">
<circle id="Ellipse 1" cx="2" cy="2" r="2" fill="var(--fill-0, #D0D5DD)"/>
<circle id="Ellipse 39" cx="22" cy="2" r="2" fill="var(--fill-0, #D0D5DD)"/>
<circle id="Ellipse 20" cx="42" cy="2" r="2" fill="var(--fill-0, #D0D5DD)"/>
<circle id="Ellipse 40" cx="62" cy="2" r="2" fill="var(--fill-0, #D0D5DD)"/>
<circle id="Ellipse 2" cx="82" cy="2" r="2" fill="var(--fill-0, #D0D5DD)"/>
<circle id="Ellipse 41" cx="102" cy="2" r="2" fill="var(--fill-0, #D0D5DD)"/>
<circle id="Ellipse 21" cx="122" cy="2" r="2" fill="var(--fill-0, #D0D5DD)"/>
<circle id="Ellipse 42" cx="142" cy="2" r="2" fill="var(--fill-0, #D0D5DD)"/>
<circle id="Ellipse 3" cx="162" cy="2" r="2" fill="var(--fill-0, #D0D5DD)"/>
<circle id="Ellipse 43" cx="182" cy="2" r="2" fill="var(--fill-0, #D0D5DD)"/>
<circle id="Ellipse 22" cx="202" cy="2" r="2" fill="var(--fill-0, #D0D5DD)"/>
<circle id="Ellipse 44" cx="222" cy="2" r="2" fill="var(--fill-0, #D0D5DD)"/>
<circle id="Ellipse 4" cx="242" cy="2" r="2" fill="var(--fill-0, #D0D5DD)"/>
<circle id="Ellipse 45" cx="262" cy="2" r="2" fill="var(--fill-0, #D0D5DD)"/>
<circle id="Ellipse 23" cx="282" cy="2" r="2" fill="var(--fill-0, #D0D5DD)"/>
<circle id="Ellipse 46" cx="302" cy="2" r="2" fill="var(--fill-0, #D0D5DD)"/>
<circle id="Ellipse 5" cx="322" cy="2" r="2" fill="var(--fill-0, #D0D5DD)"/>
<circle id="Ellipse 47" cx="342" cy="2" r="2" fill="var(--fill-0, #D0D5DD)"/>
<circle id="Ellipse 24" cx="362" cy="2" r="2" fill="var(--fill-0, #D0D5DD)"/>
<circle id="Ellipse 48" cx="382" cy="2" r="2" fill="var(--fill-0, #D0D5DD)"/>
<circle id="Ellipse 6" cx="402" cy="2" r="2" fill="var(--fill-0, #D0D5DD)"/>
<circle id="Ellipse 49" cx="422" cy="2" r="2" fill="var(--fill-0, #D0D5DD)"/>
<circle id="Ellipse 25" cx="442" cy="2" r="2" fill="var(--fill-0, #D0D5DD)"/>
<circle id="Ellipse 50" cx="462" cy="2" r="2" fill="var(--fill-0, #D0D5DD)"/>
<circle id="Ellipse 7" cx="482" cy="2" r="2" fill="var(--fill-0, #D0D5DD)"/>
<circle id="Ellipse 51" cx="502" cy="2" r="2" fill="var(--fill-0, #D0D5DD)"/>
<circle id="Ellipse 26" cx="522" cy="2" r="2" fill="var(--fill-0, #D0D5DD)"/>
<circle id="Ellipse 52" cx="542" cy="2" r="2" fill="var(--fill-0, #D0D5DD)"/>
<circle id="Ellipse 8" cx="562" cy="2" r="2" fill="var(--fill-0, #D0D5DD)"/>
<circle id="Ellipse 53" cx="582" cy="2" r="2" fill="var(--fill-0, #D0D5DD)"/>
<circle id="Ellipse 27" cx="602" cy="2" r="2" fill="var(--fill-0, #D0D5DD)"/>
<circle id="Ellipse 54" cx="622" cy="2" r="2" fill="var(--fill-0, #D0D5DD)"/>
<circle id="Ellipse 9" cx="642" cy="2" r="2" fill="var(--fill-0, #D0D5DD)"/>
<circle id="Ellipse 55" cx="662" cy="2" r="2" fill="var(--fill-0, #D0D5DD)"/>
<circle id="Ellipse 28" cx="682" cy="2" r="2" fill="var(--fill-0, #D0D5DD)"/>
<circle id="Ellipse 56" cx="702" cy="2" r="2" fill="var(--fill-0, #D0D5DD)"/>
<circle id="Ellipse 10" cx="722" cy="2" r="2" fill="var(--fill-0, #D0D5DD)"/>
<circle id="Ellipse 57" cx="742" cy="2" r="2" fill="var(--fill-0, #D0D5DD)"/>
<circle id="Ellipse 29" cx="762" cy="2" r="2" fill="var(--fill-0, #D0D5DD)"/>
<circle id="Ellipse 58" cx="782" cy="2" r="2" fill="var(--fill-0, #D0D5DD)"/>
<circle id="Ellipse 11" cx="802" cy="2" r="2" fill="var(--fill-0, #D0D5DD)"/>
<circle id="Ellipse 59" cx="822" cy="2" r="2" fill="var(--fill-0, #D0D5DD)"/>
<circle id="Ellipse 30" cx="842" cy="2" r="2" fill="var(--fill-0, #D0D5DD)"/>
<circle id="Ellipse 60" cx="862" cy="2" r="2" fill="var(--fill-0, #D0D5DD)"/>
<circle id="Ellipse 12" cx="882" cy="2" r="2" fill="var(--fill-0, #D0D5DD)"/>
<circle id="Ellipse 61" cx="902" cy="2" r="2" fill="var(--fill-0, #D0D5DD)"/>
<circle id="Ellipse 31" cx="922" cy="2" r="2" fill="var(--fill-0, #D0D5DD)"/>
<circle id="Ellipse 62" cx="942" cy="2" r="2" fill="var(--fill-0, #D0D5DD)"/>
<circle id="Ellipse 13" cx="962" cy="2" r="2" fill="var(--fill-0, #D0D5DD)"/>
<circle id="Ellipse 63" cx="982" cy="2" r="2" fill="var(--fill-0, #D0D5DD)"/>
<circle id="Ellipse 32" cx="1002" cy="2" r="2" fill="var(--fill-0, #D0D5DD)"/>
<circle id="Ellipse 64" cx="1022" cy="2" r="2" fill="var(--fill-0, #D0D5DD)"/>
<circle id="Ellipse 14" cx="1042" cy="2" r="2" fill="var(--fill-0, #D0D5DD)"/>
<circle id="Ellipse 65" cx="1062" cy="2" r="2" fill="var(--fill-0, #D0D5DD)"/>
<circle id="Ellipse 33" cx="1082" cy="2" r="2" fill="var(--fill-0, #D0D5DD)"/>
<circle id="Ellipse 66" cx="1102" cy="2" r="2" fill="var(--fill-0, #D0D5DD)"/>
<circle id="Ellipse 15" cx="1122" cy="2" r="2" fill="var(--fill-0, #D0D5DD)"/>
<circle id="Ellipse 67" cx="1142" cy="2" r="2" fill="var(--fill-0, #D0D5DD)"/>
<circle id="Ellipse 34" cx="1162" cy="2" r="2" fill="var(--fill-0, #D0D5DD)"/>
<circle id="Ellipse 68" cx="1182" cy="2" r="2" fill="var(--fill-0, #D0D5DD)"/>
<circle id="Ellipse 16" cx="1202" cy="2" r="2" fill="var(--fill-0, #D0D5DD)"/>
<circle id="Ellipse 69" cx="1222" cy="2" r="2" fill="var(--fill-0, #D0D5DD)"/>
<circle id="Ellipse 35" cx="1242" cy="2" r="2" fill="var(--fill-0, #D0D5DD)"/>
<circle id="Ellipse 70" cx="1262" cy="2" r="2" fill="var(--fill-0, #D0D5DD)"/>
<circle id="Ellipse 17" cx="1282" cy="2" r="2" fill="var(--fill-0, #D0D5DD)"/>
<circle id="Ellipse 71" cx="1302" cy="2" r="2" fill="var(--fill-0, #D0D5DD)"/>
<circle id="Ellipse 36" cx="1322" cy="2" r="2" fill="var(--fill-0, #D0D5DD)"/>
<circle id="Ellipse 72" cx="1342" cy="2" r="2" fill="var(--fill-0, #D0D5DD)"/>
<circle id="Ellipse 18" cx="1362" cy="2" r="2" fill="var(--fill-0, #D0D5DD)"/>
<circle id="Ellipse 73" cx="1382" cy="2" r="2" fill="var(--fill-0, #D0D5DD)"/>
<circle id="Ellipse 37" cx="1402" cy="2" r="2" fill="var(--fill-0, #D0D5DD)"/>
<circle id="Ellipse 74" cx="1422" cy="2" r="2" fill="var(--fill-0, #D0D5DD)"/>
<circle id="Ellipse 19" cx="1442" cy="2" r="2" fill="var(--fill-0, #D0D5DD)"/>
<circle id="Ellipse 75" cx="1462" cy="2" r="2" fill="var(--fill-0, #D0D5DD)"/>
<circle id="Ellipse 38" cx="1482" cy="2" r="2" fill="var(--fill-0, #D0D5DD)"/>
<circle id="Ellipse 76" cx="1502" cy="2" r="2" fill="var(--fill-0, #D0D5DD)"/>
</g>
</svg>
