<svg preserveAspectRatio="none" width="100%" height="100%" overflow="visible" viewBox="0 0 268 292" fill="none" xmlns="http://www.w3.org/2000/svg" aria-hidden="true">
  <g>
    <path d="M0 5.3578C0 2.39877 2.85685 0 6.38095 0H261.619C265.143 0 268 2.39877 268 5.3578V52.2385C268 55.1976 265.143 57.5963 261.619 57.5963H6.38096C2.85686 57.5963 0 55.1976 0 52.2385V5.3578Z" fill="#EAECF0"/>
    <path d="M0 76.3486C0 73.3896 2.85685 70.9908 6.38095 70.9908H81.3571C84.8812 70.9908 87.7381 73.3896 87.7381 76.3486V286.642C87.7381 289.601 84.8812 292 81.3571 292H6.38095C2.85685 292 0 289.601 0 286.642V76.3486Z" fill="#EAECF0"/>
    <path d="M103.69 76.3486C103.69 73.3896 106.547 70.9908 110.071 70.9908H261.619C265.143 70.9908 268 73.3896 268 76.3486V127.248C268 130.207 265.143 132.606 261.619 132.606H110.071C106.547 132.606 103.69 130.207 103.69 127.248V76.3486Z" fill="#EAECF0"/>
    <path d="M103.69 143.321C103.69 141.102 105.833 139.303 108.476 139.303H263.214C265.857 139.303 268 141.102 268 143.321C268 145.54 265.857 147.339 263.214 147.339H108.476C105.833 147.339 103.69 145.54 103.69 143.321Z" fill="#EAECF0"/>
    <path d="M103.69 158.055C103.69 155.836 105.833 154.037 108.476 154.037H186.643C189.286 154.037 191.429 155.836 191.429 158.055C191.429 160.274 189.286 162.073 186.643 162.073H108.476C105.833 162.073 103.69 160.274 103.69 158.055Z" fill="#EAECF0"/>
    <path d="M103.69 180.826C103.69 177.867 106.547 175.468 110.071 175.468H185.048C188.572 175.468 191.429 177.867 191.429 180.826V221.009C191.429 223.968 188.572 226.367 185.048 226.367H110.071C106.547 226.367 103.69 223.968 103.69 221.009V180.826Z" fill="#EAECF0"/>
    <path d="M199.405 178.147C199.405 176.667 200.833 175.468 202.595 175.468H264.81C266.572 175.468 268 176.667 268 178.147V180.826C268 182.305 266.572 183.505 264.81 183.505H202.595C200.833 183.505 199.405 182.305 199.405 180.826V178.147Z" fill="#EAECF0"/>
    <path d="M199.405 192.881C199.405 191.401 200.833 190.202 202.595 190.202H264.81C266.572 190.202 268 191.401 268 192.881V195.56C268 197.039 266.572 198.239 264.81 198.239H202.595C200.833 198.239 199.405 197.039 199.405 195.56V192.881Z" fill="#EAECF0"/>
    <path d="M199.405 207.615C199.405 206.135 200.833 204.936 202.595 204.936H264.81C266.572 204.936 268 206.135 268 207.615V210.294C268 211.773 266.572 212.972 264.81 212.972H202.595C200.833 212.972 199.405 211.773 199.405 210.294V207.615Z" fill="#EAECF0"/>
    <path d="M199.405 221.009C199.405 219.53 200.833 218.33 202.595 218.33H240.881C242.643 218.33 244.071 219.53 244.071 221.009V223.688C244.071 225.168 242.643 226.367 240.881 226.367H202.595C200.833 226.367 199.405 225.168 199.405 223.688V221.009Z" fill="#EAECF0"/>
    <path d="M103.69 245.119C103.69 242.16 106.547 239.761 110.071 239.761H185.048C188.572 239.761 191.429 242.16 191.429 245.119V285.303C191.429 288.262 188.572 290.661 185.048 290.661H110.071C106.547 290.661 103.69 288.262 103.69 285.303V245.119Z" fill="#EAECF0"/>
    <path d="M199.405 242.44C199.405 240.961 200.833 239.761 202.595 239.761H264.81C266.572 239.761 268 240.961 268 242.44V245.119C268 246.599 266.572 247.798 264.81 247.798H202.595C200.833 247.798 199.405 246.599 199.405 245.119V242.44Z" fill="#EAECF0"/>
    <path d="M199.405 257.174C199.405 255.695 200.833 254.495 202.595 254.495H264.81C266.572 254.495 268 255.695 268 257.174V259.853C268 261.333 266.572 262.532 264.81 262.532H202.595C200.833 262.532 199.405 261.333 199.405 259.853V257.174Z" fill="#EAECF0"/>
    <path d="M199.405 271.908C199.405 270.429 200.833 269.229 202.595 269.229H264.81C266.572 269.229 268 270.429 268 271.908V274.587C268 276.067 266.572 277.266 264.81 277.266H202.595C200.833 277.266 199.405 276.067 199.405 274.587V271.908Z" fill="#EAECF0"/>
    <path d="M199.405 285.303C199.405 283.823 200.833 282.624 202.595 282.624H240.881C242.643 282.624 244.071 283.823 244.071 285.303V287.982C244.071 289.461 242.643 290.661 240.881 290.661H202.595C200.833 290.661 199.405 289.461 199.405 287.982V285.303Z" fill="#EAECF0"/>
  </g>
</svg>
