<svg width="27" height="27" viewBox="0 0 27 27" fill="none" xmlns="http://www.w3.org/2000/svg">
<g clip-path="url(#clip0_3314_7324)">
<path d="M13.5 25.5C20.1274 25.5 25.5 20.1274 25.5 13.5C25.5 6.87258 20.1274 1.5 13.5 1.5C6.87258 1.5 1.5 6.87258 1.5 13.5C1.5 20.1274 6.87258 25.5 13.5 25.5Z" fill="#F0F0F0"/>
<path d="M12.978 13.5001H25.4997C25.4997 12.417 25.3554 11.3677 25.0863 10.3696H12.978V13.5001Z" fill="#D80027"/>
<path d="M12.978 7.23861H23.7385C23.0039 6.03992 22.0647 4.9804 20.9696 4.10815H12.978V7.23861Z" fill="#D80027"/>
<path d="M13.4996 25.5C16.3238 25.5 18.9196 24.5239 20.9694 22.8914H6.02979C8.07963 24.5239 10.6754 25.5 13.4996 25.5Z" fill="#D80027"/>
<path d="M3.26098 19.7601H23.7384C24.3282 18.7978 24.7855 17.7459 25.0863 16.6296H1.91309C2.21388 17.7459 2.67124 18.7978 3.26098 19.7601Z" fill="#D80027"/>
<path d="M7.05863 3.37397H8.15217L7.13498 4.11295L7.52353 5.30869L6.50639 4.5697L5.48925 5.30869L5.82488 4.2757C4.92928 5.02172 4.14431 5.89575 3.49744 6.86963H3.84783L3.20034 7.34002C3.09947 7.5083 3.00272 7.67925 2.91 7.85273L3.21919 8.80434L2.64234 8.38523C2.49895 8.68903 2.3678 8.99967 2.24991 9.31678L2.59055 10.3653H3.84783L2.83064 11.1043L3.21919 12.3L2.20205 11.561L1.59277 12.0037C1.53178 12.4939 1.5 12.9932 1.5 13.5H13.5C13.5 6.87263 13.5 6.09131 13.5 1.5C11.1294 1.5 8.91961 2.18766 7.05863 3.37397ZM7.52353 12.3L6.50639 11.561L5.48925 12.3L5.8778 11.1043L4.86061 10.3653H6.11789L6.50639 9.16955L6.89489 10.3653H8.15217L7.13498 11.1043L7.52353 12.3ZM7.13498 7.60861L7.52353 8.80434L6.50639 8.06536L5.48925 8.80434L5.8778 7.60861L4.86061 6.86963H6.11789L6.50639 5.67389L6.89489 6.86963H8.15217L7.13498 7.60861ZM11.8279 12.3L10.8107 11.561L9.79359 12.3L10.1821 11.1043L9.16495 10.3653H10.4222L10.8107 9.16955L11.1992 10.3653H12.4565L11.4393 11.1043L11.8279 12.3ZM11.4393 7.60861L11.8279 8.80434L10.8107 8.06536L9.79359 8.80434L10.1821 7.60861L9.16495 6.86963H10.4222L10.8107 5.67389L11.1992 6.86963H12.4565L11.4393 7.60861ZM11.4393 4.11295L11.8279 5.30869L10.8107 4.5697L9.79359 5.30869L10.1821 4.11295L9.16495 3.37397H10.4222L10.8107 2.17823L11.1992 3.37397H12.4565L11.4393 4.11295Z" fill="#0052B4"/>
</g>
<defs>
<clipPath id="clip0_3314_7324">
<rect x="1.5" y="1.5" width="24" height="24" rx="12" fill="white"/>
</clipPath>
</defs>
</svg>
