<svg width="27" height="27" viewBox="0 0 27 27" fill="none" xmlns="http://www.w3.org/2000/svg">
<g clip-path="url(#clip0_3314_7349)">
<path d="M13.5 25.5C20.1274 25.5 25.5 20.1274 25.5 13.5C25.5 6.87258 20.1274 1.5 13.5 1.5C6.87258 1.5 1.5 6.87258 1.5 13.5C1.5 20.1274 6.87258 25.5 13.5 25.5Z" fill="#F0F0F0"/>
<path d="M13.4995 10.3687H25.0861C24.7852 9.25245 24.3279 8.20053 23.7382 7.23828H13.4995V10.3687Z" fill="#338AF3"/>
<path d="M6.03009 22.89H20.9698C22.0649 22.0177 23.0041 20.9583 23.7386 19.7595H3.26123C3.99581 20.9582 4.935 22.0177 6.03009 22.89Z" fill="#338AF3"/>
<path d="M13.5 1.49927C13.5 2.54275 13.5 4.10796 13.5 4.10796H20.9699C18.92 2.47539 16.3242 1.49927 13.5 1.49927Z" fill="#338AF3"/>
<path d="M13.4995 10.3687H25.0861C24.7852 9.25245 24.3279 8.20053 23.7382 7.23828H13.4995V10.3687Z" fill="#338AF3"/>
<path d="M1.5 13.5C1.5 14.5831 1.64438 15.6323 1.91339 16.6305H25.0867C25.3556 15.6323 25.5 14.5831 25.5 13.5H1.5Z" fill="#338AF3"/>
<path d="M11.935 8.52317L10.4694 9.21256L11.2498 10.6319L9.65842 10.3275L9.45677 11.9351L8.34836 10.7527L7.23986 11.9351L7.03825 10.3275L5.44684 10.6318L6.22722 9.21251L4.76172 8.52317L6.22727 7.83387L5.44684 6.4145L7.0382 6.71891L7.23991 5.11133L8.34836 6.2937L9.45681 5.11133L9.65842 6.71891L11.2499 6.4145L10.4695 7.83392L11.935 8.52317Z" fill="#FFDA44"/>
</g>
<defs>
<clipPath id="clip0_3314_7349">
<rect x="1.5" y="1.5" width="24" height="24" rx="12" fill="white"/>
</clipPath>
</defs>
</svg>
